<svg width="142" height="35" viewBox="0 0 142 35" fill="none" xmlns="http://www.w3.org/2000/svg">
<path fill-rule="evenodd" clip-rule="evenodd" d="M0 7.98604L15.417 0L31 7.98604L15.417 16L0 7.98604ZM92.5541 11.8688V11.6787C92.5541 9.04427 94.1036 8.20235 96.7132 8.39246V3.58535C90.461 3.20513 87.498 6.32839 87.498 11.6787V11.8688H84.6709V16.6759H87.498V31.233H92.5541V16.6759H95.5439H96.7132H98.371V31.233H103.427V16.6759H107.586V11.8688H103.427V11.6787C103.427 9.04427 104.949 8.20235 107.586 8.39246V3.58535C101.334 3.20513 98.371 6.32839 98.371 11.6787V11.8688H96.7132H95.5439H92.5541ZM57.2157 17.1371C58.8195 15.8606 59.7981 14.041 59.7981 11.7053C59.7981 7.16983 56.1011 4.07373 51.4528 4.07373H40.6611V31.1782H52.3227C57.0797 31.1782 60.8854 27.9735 60.8854 23.3293C60.831 20.5319 59.4175 18.3864 57.2157 17.1371ZM51.48 9.0981C53.2197 9.0981 54.4158 10.3746 54.4158 12.0856C54.4158 13.7966 53.1654 15.073 51.48 15.073H46.0706V9.0981H51.48ZM52.2955 26.2081H46.0706V19.8258H52.2955C54.144 19.8258 55.4759 21.1838 55.4759 23.0034C55.4759 24.8502 54.144 26.2081 52.2955 26.2081ZM76.6516 11.8408V22.2969C76.6516 25.6646 74.8032 27.104 72.3295 27.104C70.0461 27.104 68.4423 25.7461 68.4423 23.1117V11.8408H63.3862V23.7364C63.3862 28.8965 66.6211 31.7482 70.8073 31.7482C73.444 31.7482 75.4827 30.7705 76.6244 29.0323V31.205H81.6805V11.8408H76.6516ZM128.544 23.5739H113.757C114.491 26.1269 116.611 27.2132 119.248 27.2132C121.232 27.2132 122.809 26.3984 123.652 25.2849L127.729 27.5934C125.908 30.2278 122.972 31.7487 119.193 31.7487C112.615 31.7487 108.456 27.2947 108.456 21.5099C108.456 15.725 112.642 11.271 118.813 11.271C124.603 11.271 128.735 15.8065 128.735 21.5099C128.735 22.2703 128.653 22.9221 128.544 23.5739ZM118.813 15.8065C116.095 15.8065 114.246 17.2459 113.675 19.7174H123.679C123.053 16.92 120.933 15.8065 118.813 15.8065ZM136.047 15.1822V11.8416H130.991V31.2059H136.047V21.9447C136.047 17.8709 139.364 16.7031 142 17.029V11.4614C139.527 11.4614 137.053 12.5478 136.047 15.1822ZM15.417 29.7037L4.89907 24L0 26.6481L15.417 35L31 26.6481L26.0455 24L15.417 29.7037ZM4.89907 15L15.417 20.1724L26.0455 15L31 17.4138L15.417 25L0 17.4138L4.89907 15Z" fill="#231F20"/>
</svg>
